<svg xmlns="http://www.w3.org/2000/svg" viewBox="0 0 512 512"><rect width="512" height="512" rx="96" fill="#0c0d0f"/><path fill="#1a8fd1" fill-rule="evenodd" transform="translate(56.0 137.8) scale(0.9723)" d="M63.0,17.0L63.0,16.6L62.9,16.2L62.9,15.8L62.8,15.5L62.8,15.1L62.7,14.7L62.6,14.3L62.5,13.9L62.4,13.5L62.3,13.2L62.2,12.8L62.1,12.4L61.9,12.0L61.8,11.7L61.6,11.3L61.5,11.0L61.3,10.6L61.1,10.3L60.9,9.9L60.7,9.6L60.5,9.2L60.3,8.9L60.1,8.6L59.9,8.3L59.6,8.0L59.4,7.7L59.1,7.4L58.9,7.1L58.6,6.8L58.3,6.5L58.0,6.2L57.7,6.0L57.5,5.7L57.2,5.4L56.8,5.2L56.5,5.0L56.2,4.7L55.9,4.5L55.6,4.3L55.2,4.1L54.9,3.9L54.5,3.7L54.2,3.5L53.8,3.3L53.5,3.2L53.1,3.0L52.8,2.9L52.4,2.7L52.0,2.6L51.6,2.5L51.3,2.4L50.9,2.3L50.5,2.2L50.1,2.1L49.7,2.0L49.3,2.0L49.0,1.9L48.6,1.9L48.2,1.9L47.8,1.8L47.4,1.8L47.0,1.8L16.0,1.8L15.6,1.8L15.2,1.8L14.8,1.9L14.4,1.9L14.0,1.9L13.7,2.0L13.3,2.0L12.9,2.1L12.5,2.2L12.1,2.3L11.7,2.4L11.4,2.5L11.0,2.6L10.6,2.7L10.2,2.9L9.9,3.0L9.5,3.2L9.2,3.3L8.8,3.5L8.5,3.7L8.1,3.9L7.8,4.1L7.4,4.3L7.1,4.5L6.8,4.7L6.5,5.0L6.2,5.2L5.8,5.4L5.5,5.7L5.3,6.0L5.0,6.2L4.7,6.5L4.4,6.8L4.1,7.1L3.9,7.4L3.6,7.7L3.4,8.0L3.1,8.3L2.9,8.6L2.7,8.9L2.5,9.2L2.3,9.6L2.1,9.9L1.9,10.3L1.7,10.6L1.5,11.0L1.4,11.3L1.2,11.7L1.1,12.0L0.9,12.4L0.8,12.8L0.7,13.2L0.6,13.5L0.5,13.9L0.4,14.3L0.3,14.7L0.2,15.1L0.2,15.5L0.1,15.8L0.1,16.2L0.0,16.6L0.0,17.0L0.0,17.4L0.0,17.8L0.0,225.3L0.0,225.7L0.0,226.1L0.0,226.5L0.1,226.9L0.1,227.3L0.2,227.7L0.2,228.0L0.3,228.4L0.4,228.8L0.5,229.2L0.6,229.6L0.7,230.0L0.8,230.3L0.9,230.7L1.1,231.1L1.2,231.4L1.4,231.8L1.5,232.1L1.7,232.5L1.9,232.8L2.1,233.2L2.3,233.5L2.5,233.9L2.7,234.2L2.9,234.5L3.1,234.8L3.4,235.2L3.6,235.5L3.9,235.8L4.1,236.1L4.4,236.3L4.7,236.6L5.0,236.9L5.3,237.2L5.5,237.4L5.8,237.7L6.2,237.9L6.5,238.2L6.8,238.4L7.1,238.6L7.4,238.8L7.8,239.0L8.1,239.2L8.5,239.4L8.8,239.6L9.2,239.8L9.5,239.9L9.9,240.1L10.2,240.2L10.6,240.4L11.0,240.5L11.4,240.6L11.7,240.7L12.1,240.8L12.5,240.9L12.9,241.0L13.3,241.1L13.7,241.1L14.0,241.2L14.4,241.2L14.8,241.3L15.2,241.3L15.6,241.3L16.0,241.3L47.0,241.3L47.4,241.3L47.8,241.3L48.2,241.3L48.6,241.2L49.0,241.2L49.3,241.1L49.7,241.1L50.1,241.0L50.5,240.9L50.9,240.8L51.3,240.7L51.6,240.6L52.0,240.5L52.4,240.4L52.8,240.2L53.1,240.1L53.5,239.9L53.8,239.8L54.2,239.6L54.5,239.4L54.9,239.2L55.2,239.0L55.6,238.8L55.9,238.6L56.2,238.4L56.5,238.2L56.8,237.9L57.2,237.7L57.5,237.4L57.7,237.2L58.0,236.9L58.3,236.6L58.6,236.3L58.9,236.1L59.1,235.8L59.4,235.5L59.6,235.2L59.9,234.8L60.1,234.5L60.3,234.2L60.5,233.9L60.7,233.5L60.9,233.2L61.1,232.8L61.3,232.5L61.5,232.1L61.6,231.8L61.8,231.4L61.9,231.1L62.1,230.7L62.2,230.3L62.3,230.0L62.4,229.6L62.5,229.2L62.6,228.8L62.7,228.4L62.8,228.0L62.8,227.7L62.9,227.3L62.9,226.9L63.0,226.5L63.0,226.1L63.0,225.7L63.0,225.3L63.0,17.8L63.0,17.4ZM166.0,16.6L165.9,16.2L165.9,15.8L165.8,15.5L165.8,15.1L165.7,14.7L165.6,14.3L165.5,13.9L165.4,13.5L165.3,13.2L165.2,12.8L165.1,12.4L164.9,12.0L164.8,11.7L164.6,11.3L164.5,11.0L164.3,10.6L164.1,10.3L163.9,9.9L163.7,9.6L163.5,9.2L163.3,8.9L163.1,8.6L162.9,8.3L162.6,8.0L162.4,7.7L162.1,7.4L161.9,7.1L161.6,6.8L161.3,6.5L161.0,6.2L160.7,6.0L160.5,5.7L160.2,5.4L159.8,5.2L159.5,5.0L159.2,4.7L158.9,4.5L158.6,4.3L158.2,4.1L157.9,3.9L157.5,3.7L157.2,3.5L156.8,3.3L156.5,3.2L156.1,3.0L155.8,2.9L155.4,2.7L155.0,2.6L154.6,2.5L154.3,2.4L153.9,2.3L153.5,2.2L153.1,2.1L152.7,2.0L152.3,2.0L152.0,1.9L151.6,1.9L151.2,1.9L150.8,1.8L150.4,1.8L150.0,1.8L119.2,1.8L118.9,1.8L118.5,1.8L118.1,1.9L117.7,1.9L117.3,1.9L116.9,2.0L116.5,2.0L116.1,2.1L115.7,2.2L115.4,2.3L115.0,2.4L114.6,2.5L114.2,2.6L113.9,2.7L113.5,2.9L113.1,3.0L112.8,3.2L112.4,3.3L112.1,3.5L111.7,3.7L111.4,3.9L111.0,4.1L110.7,4.3L110.4,4.5L110.0,4.7L109.7,5.0L109.4,5.2L109.1,5.4L108.8,5.7L108.5,6.0L108.2,6.2L107.9,6.5L107.7,6.8L107.4,7.1L107.1,7.4L106.9,7.7L106.6,8.0L106.4,8.3L106.2,8.6L105.9,8.9L105.7,9.2L105.5,9.6L105.3,9.9L105.1,10.3L105.0,10.6L104.8,11.0L104.6,11.3L104.5,11.7L104.3,12.0L104.2,12.4L104.1,12.8L103.9,13.2L103.8,13.5L103.7,13.9L103.6,14.3L103.6,14.7L103.5,15.1L103.4,15.5L103.4,15.8L103.3,16.2L103.3,16.6L103.3,17.0L103.3,17.4L103.2,17.8L103.2,225.3L103.3,225.7L103.3,226.1L103.3,226.5L103.3,226.9L103.4,227.3L103.4,227.7L103.5,228.0L103.6,228.4L103.6,228.8L103.7,229.2L103.8,229.6L103.9,230.0L104.1,230.3L104.2,230.7L104.3,231.1L104.5,231.4L104.6,231.8L104.8,232.1L105.0,232.5L105.1,232.8L105.3,233.2L105.5,233.5L105.7,233.9L105.9,234.2L106.2,234.5L106.4,234.8L106.6,235.2L106.9,235.5L107.1,235.8L107.4,236.1L107.7,236.3L107.9,236.6L108.2,236.9L108.5,237.2L108.8,237.4L109.1,237.7L109.4,237.9L109.7,238.2L110.0,238.4L110.4,238.6L110.7,238.8L111.0,239.0L111.4,239.2L111.7,239.4L112.1,239.6L112.4,239.8L112.8,239.9L113.1,240.1L113.5,240.2L113.9,240.4L114.2,240.5L114.6,240.6L115.0,240.7L115.4,240.8L115.7,240.9L116.1,241.0L116.5,241.1L116.9,241.1L117.3,241.2L117.7,241.2L118.1,241.3L118.5,241.3L118.9,241.3L119.2,241.3L150.0,241.3L150.4,241.3L150.8,241.3L151.2,241.3L151.6,241.2L152.0,241.2L152.3,241.1L152.7,241.1L153.1,241.0L153.5,240.9L153.9,240.8L154.3,240.7L154.6,240.6L155.0,240.5L155.4,240.4L155.8,240.2L156.1,240.1L156.5,239.9L156.8,239.8L157.2,239.6L157.5,239.4L157.9,239.2L158.2,239.0L158.6,238.8L158.9,238.6L159.2,238.4L159.5,238.2L159.8,237.9L160.2,237.7L160.5,237.4L160.7,237.2L161.0,236.9L161.3,236.6L161.6,236.3L161.9,236.1L162.1,235.8L162.4,235.5L162.6,235.2L162.9,234.8L163.1,234.5L163.3,234.2L163.5,233.9L163.7,233.5L163.9,233.2L164.1,232.8L164.3,232.5L164.5,232.1L164.6,231.8L164.8,231.4L164.9,231.1L165.1,230.7L165.2,230.3L165.3,230.0L165.4,229.6L165.5,229.2L165.6,228.8L165.7,228.4L165.8,228.0L165.8,227.7L165.9,227.3L165.9,226.9L166.0,226.5L166.0,226.1L166.0,225.7L166.0,225.3L166.0,17.8L166.0,17.4L166.0,17.0ZM253.0,3.8L252.3,3.4L251.6,3.1L250.9,2.8L250.1,2.5L249.4,2.2L248.7,1.9L247.9,1.6L247.1,1.4L246.4,1.2L245.6,1.0L244.8,0.8L244.1,0.6L243.3,0.5L242.5,0.3L241.7,0.2L240.9,0.2L240.1,0.1L239.3,0.0L238.5,0.0L237.7,0.0L236.9,0.0L236.1,0.0L235.3,0.1L234.5,0.2L233.7,0.2L232.9,0.4L232.2,0.5L231.4,0.6L230.6,0.8L229.8,1.0L229.1,1.2L228.3,1.4L227.5,1.6L226.8,1.9L226.0,2.2L225.3,2.5L224.6,2.8L223.8,3.1L223.1,3.5L222.4,3.8L221.7,4.2L221.0,4.6L220.3,5.1L219.7,5.5L219.0,5.9L218.4,6.4L217.7,6.9L217.1,7.4L216.5,7.9L215.9,8.4L215.3,9.0L214.8,9.5L214.2,10.1L213.7,10.7L213.1,11.3L212.6,11.9L212.1,12.5L211.6,13.2L211.2,13.8L210.7,14.5L210.3,15.1L209.9,15.8L209.5,16.5L209.1,17.2L208.7,17.9L208.4,18.6L208.0,19.3L207.7,20.1L207.4,20.8L207.1,21.6L206.9,22.3L206.6,23.1L206.4,23.8L206.2,24.6L206.0,25.4L205.9,26.2L205.7,26.9L205.6,27.7L205.5,28.5L205.4,29.3L205.3,30.1L205.3,30.9L205.3,31.7L205.2,32.5L205.2,210.6L205.3,211.4L205.3,212.2L205.3,213.0L205.4,213.8L205.5,214.6L205.6,215.4L205.7,216.2L205.9,216.9L206.0,217.7L206.2,218.5L206.4,219.3L206.6,220.0L206.9,220.8L207.1,221.6L207.4,222.3L207.7,223.0L208.0,223.8L208.4,224.5L208.7,225.2L209.1,225.9L209.5,226.6L209.9,227.3L210.3,228.0L210.7,228.7L211.2,229.3L211.6,230.0L212.1,230.6L212.6,231.2L213.1,231.8L213.7,232.4L214.2,233.0L214.8,233.6L215.3,234.1L215.9,234.7L216.5,235.2L217.1,235.7L217.7,236.2L218.4,236.7L219.0,237.2L219.7,237.6L220.3,238.1L221.0,238.5L221.7,238.9L222.4,239.3L223.1,239.6L223.8,240.0L224.6,240.3L225.3,240.6L226.0,240.9L226.8,241.2L227.5,241.5L228.3,241.7L229.1,241.9L229.8,242.1L230.6,242.3L231.4,242.5L232.2,242.6L232.9,242.8L233.7,242.9L234.5,243.0L235.3,243.0L236.1,243.1L236.9,243.1L237.7,243.1L238.5,243.1L239.3,243.1L240.1,243.0L240.9,243.0L241.7,242.9L242.5,242.8L243.3,242.6L244.1,242.5L244.8,242.3L245.6,242.1L246.4,241.9L247.1,241.7L247.9,241.5L248.7,241.2L249.4,241.0L250.1,240.7L250.9,240.3L251.6,240.0L252.3,239.7L253.0,239.3L253.7,238.9L254.4,238.5L255.1,238.1L396.2,149.0L396.9,148.6L397.5,148.2L398.2,147.7L398.8,147.2L399.4,146.7L400.1,146.2L400.7,145.7L401.2,145.1L401.8,144.6L402.4,144.0L402.9,143.4L403.4,142.8L404.0,142.2L404.5,141.6L404.9,140.9L405.4,140.3L405.9,139.6L406.3,139.0L406.7,138.3L407.1,137.6L407.5,136.9L407.9,136.2L408.2,135.5L408.6,134.7L408.9,134.0L409.2,133.3L409.5,132.5L409.7,131.8L410.0,131.0L410.2,130.2L410.4,129.5L410.6,128.7L410.7,127.9L410.9,127.1L411.0,126.3L411.1,125.5L411.2,124.7L411.3,124.0L411.3,123.2L411.3,122.4L411.4,121.6L411.3,120.8L411.3,120.0L411.3,119.2L411.2,118.4L411.1,117.6L411.0,116.8L410.9,116.0L410.7,115.2L410.6,114.4L410.4,113.6L410.2,112.9L410.0,112.1L409.7,111.3L409.5,110.6L409.2,109.8L408.9,109.1L408.6,108.4L408.2,107.6L407.9,106.9L407.5,106.2L407.1,105.5L406.7,104.8L406.3,104.1L405.9,103.5L405.4,102.8L404.9,102.2L404.5,101.5L404.0,100.9L403.4,100.3L402.9,99.7L402.4,99.1L401.8,98.5L401.2,98.0L400.7,97.4L400.1,96.9L399.4,96.4L398.8,95.9L398.2,95.4L397.5,95.0L396.9,94.5L396.2,94.1L255.1,5.0L254.4,4.6L253.7,4.2ZM349.9,117.5L350.0,117.5L350.1,117.6L350.2,117.7L350.3,117.8L350.4,117.8L350.4,117.9L350.5,118.0L350.6,118.1L350.7,118.2L350.8,118.3L350.9,118.4L350.9,118.5L351.0,118.6L351.1,118.7L351.2,118.8L351.2,118.9L351.3,119.0L351.4,119.1L351.4,119.2L351.5,119.3L351.5,119.4L351.6,119.5L351.6,119.6L351.7,119.8L351.7,119.9L351.8,120.0L351.8,120.1L351.8,120.2L351.9,120.3L351.9,120.5L351.9,120.6L351.9,120.7L352.0,120.8L352.0,120.9L352.0,121.1L352.0,121.2L352.0,121.3L352.0,121.4L352.0,121.6L352.0,121.7L352.0,121.8L352.0,121.9L352.0,122.0L352.0,122.2L352.0,122.3L351.9,122.4L351.9,122.5L351.9,122.7L351.9,122.8L351.8,122.9L351.8,123.0L351.8,123.1L351.7,123.2L351.7,123.4L351.6,123.5L351.6,123.6L351.5,123.7L351.5,123.8L351.4,123.9L351.4,124.0L351.3,124.1L351.2,124.2L351.2,124.3L351.1,124.4L351.0,124.5L350.9,124.6L350.9,124.7L350.8,124.8L350.7,124.9L350.6,125.0L350.5,125.1L350.4,125.2L350.4,125.3L350.3,125.3L350.2,125.4L350.1,125.5L350.0,125.6L349.9,125.6L349.8,125.7L349.7,125.8L257.4,184.0L257.3,184.1L257.2,184.1L257.1,184.2L257.0,184.3L256.9,184.3L256.8,184.4L256.7,184.4L256.5,184.4L256.4,184.5L256.3,184.5L256.2,184.6L256.1,184.6L256.0,184.6L255.8,184.7L255.7,184.7L255.6,184.7L255.5,184.7L255.4,184.7L255.2,184.8L255.1,184.8L255.0,184.8L254.9,184.8L254.7,184.8L254.6,184.8L254.5,184.8L254.4,184.8L254.3,184.8L254.1,184.7L254.0,184.7L253.9,184.7L253.8,184.7L253.6,184.7L253.5,184.6L253.4,184.6L253.3,184.6L253.2,184.5L253.1,184.5L252.9,184.4L252.8,184.4L252.7,184.4L252.6,184.3L252.5,184.2L252.4,184.2L252.3,184.1L252.2,184.1L252.1,184.0L252.0,183.9L251.9,183.9L251.8,183.8L251.7,183.7L251.6,183.6L251.5,183.6L251.4,183.5L251.3,183.4L251.2,183.3L251.1,183.2L251.0,183.1L251.0,183.0L250.9,183.0L250.8,182.9L250.7,182.8L250.7,182.7L250.6,182.6L250.5,182.5L250.5,182.4L250.4,182.2L250.3,182.1L250.3,182.0L250.2,181.9L250.2,181.8L250.1,181.7L250.1,181.6L250.0,181.5L250.0,181.3L250.0,181.2L249.9,181.1L249.9,181.0L249.9,180.9L249.8,180.8L249.8,180.6L249.8,180.5L249.8,180.4L249.8,180.3L249.8,180.1L249.8,180.0L249.8,179.9L249.8,179.8L249.8,63.3L249.8,63.2L249.8,63.1L249.8,63.0L249.8,62.8L249.8,62.7L249.8,62.6L249.8,62.5L249.8,62.4L249.9,62.2L249.9,62.1L249.9,62.0L250.0,61.9L250.0,61.8L250.0,61.6L250.1,61.5L250.1,61.4L250.2,61.3L250.2,61.2L250.3,61.1L250.3,61.0L250.4,60.9L250.5,60.8L250.5,60.7L250.6,60.6L250.7,60.5L250.7,60.4L250.8,60.3L250.9,60.2L251.0,60.1L251.0,60.0L251.1,59.9L251.2,59.8L251.3,59.7L251.4,59.6L251.5,59.5L251.6,59.5L251.7,59.4L251.8,59.3L251.9,59.2L252.0,59.2L252.1,59.1L252.2,59.0L252.3,59.0L252.4,58.9L252.5,58.9L252.6,58.8L252.7,58.8L252.8,58.7L252.9,58.7L253.1,58.6L253.2,58.6L253.3,58.5L253.4,58.5L253.5,58.5L253.6,58.5L253.8,58.4L253.9,58.4L254.0,58.4L254.1,58.4L254.3,58.4L254.4,58.3L254.5,58.3L254.6,58.3L254.7,58.3L254.9,58.3L255.0,58.3L255.1,58.3L255.2,58.4L255.4,58.4L255.5,58.4L255.6,58.4L255.7,58.4L255.8,58.5L256.0,58.5L256.1,58.5L256.2,58.5L256.3,58.6L256.4,58.6L256.5,58.7L256.7,58.7L256.8,58.8L256.9,58.8L257.0,58.9L257.1,58.9L257.2,59.0L257.3,59.0L257.4,59.1L349.7,117.3L349.8,117.4Z"/></svg>